<svg width="50" height="50" viewBox="0 0 50 50" fill="none" xmlns="http://www.w3.org/2000/svg">
<g clip-path="url(#clip0)">
<path d="M48.1836 2.40242L38.0274 0.0586732C36.9239 -0.195233 35.7911 0.380939 35.3418 1.4161L30.6543 12.3536C30.2442 13.3106 30.5176 14.4337 31.3282 15.088L37.2461 19.9317C33.7305 27.422 27.5879 33.6524 19.9414 37.2364L15.0977 31.3184C14.4336 30.5079 13.3204 30.2345 12.3633 30.6446L1.42582 35.3321C0.3809 35.7911 -0.195272 36.9239 0.0586344 38.0274L2.40238 48.1837C2.64653 49.2384 3.58403 50.0001 4.68754 50.0001C29.6973 50.0001 50 29.7364 50 4.68758C50 3.59383 49.2481 2.64656 48.1836 2.40242Z" fill="#030011"/>
</g>
<defs>
<clipPath id="clip0">
<rect width="50" height="50" fill="white"/>
</clipPath>
</defs>
</svg>
