<svg width="51" height="50" viewBox="0 0 51 50" fill="none" xmlns="http://www.w3.org/2000/svg">
<path d="M25.5 28.125C33.4189 28.125 39.8438 21.8262 39.8438 14.0625C39.8438 6.29883 33.4189 0 25.5 0C17.5811 0 11.1562 6.29883 11.1562 14.0625C11.1562 21.8262 17.5811 28.125 25.5 28.125ZM38.25 31.25H32.7615C30.5502 32.2461 28.0898 32.8125 25.5 32.8125C22.9102 32.8125 20.4598 32.2461 18.2385 31.25H12.75C5.70762 31.25 0 36.8457 0 43.75V45.3125C0 47.9004 2.1416 50 4.78125 50H46.2188C48.8584 50 51 47.9004 51 45.3125V43.75C51 36.8457 45.2924 31.25 38.25 31.25Z" fill="#030011"/>
</svg>
