<svg width="40" height="40" viewBox="0 0 40 40" fill="none" xmlns="http://www.w3.org/2000/svg">
<path d="M34.0089 7.58594C30.2679 4.30469 25.2857 2.5 19.9911 2.5C9.0625 2.5 0.169643 10.2812 0.169643 19.8438C0.169643 22.8984 1.08036 25.8828 2.8125 28.5156L0 37.5L10.5089 35.0859C13.4018 36.4688 16.6607 37.1953 19.9821 37.1953H19.9911C30.9107 37.1953 40 29.4141 40 19.8516C40 15.2188 37.75 10.8672 34.0089 7.58594ZM19.9911 34.2734C17.0268 34.2734 14.125 33.5781 11.5982 32.2656L11 31.9531L4.76786 33.3828L6.42857 28.0625L6.03571 27.5156C4.38393 25.2188 3.51786 22.5703 3.51786 19.8438C3.51786 11.8984 10.9107 5.42969 20 5.42969C24.4018 5.42969 28.5357 6.92969 31.6429 9.65625C34.75 12.3828 36.6607 16 36.6518 19.8516C36.6518 27.8047 29.0714 34.2734 19.9911 34.2734ZM29.0268 23.4766C28.5357 23.2578 26.0982 22.2109 25.6429 22.0703C25.1875 21.9219 24.8571 21.8516 24.5268 22.2891C24.1964 22.7266 23.25 23.6953 22.9554 23.9922C22.6696 24.2812 22.375 24.3203 21.8839 24.1016C18.9732 22.8281 17.0625 21.8281 15.1429 18.9453C14.6339 18.1797 15.6518 18.2344 16.5982 16.5781C16.7589 16.2891 16.6786 16.0391 16.5536 15.8203C16.4286 15.6016 15.4375 13.4688 15.0268 12.6016C14.625 11.7578 14.2143 11.875 13.9107 11.8594C13.625 11.8438 13.2946 11.8438 12.9643 11.8438C12.6339 11.8438 12.0982 11.9531 11.6429 12.3828C11.1875 12.8203 9.91071 13.8672 9.91071 16C9.91071 18.1328 11.6875 20.1953 11.9286 20.4844C12.1786 20.7734 15.4196 25.1484 20.3929 27.0312C23.5357 28.2188 24.7679 28.3203 26.3393 28.1172C27.2946 27.9922 29.2679 27.0703 29.6786 26.0547C30.0893 25.0391 30.0893 24.1719 29.9643 23.9922C29.8482 23.7969 29.5179 23.6875 29.0268 23.4766Z" fill="white"/>
</svg>
