<svg width="40" height="40" viewBox="0 0 40 40" fill="none" xmlns="http://www.w3.org/2000/svg">
<g clip-path="url(#clip0)">
<path d="M20.0088 11.0156C14.3302 11.0156 9.74986 15.0234 9.74986 19.9922C9.74986 24.9609 14.3302 28.9687 20.0088 28.9687C25.6874 28.9687 30.2677 24.9609 30.2677 19.9922C30.2677 15.0234 25.6874 11.0156 20.0088 11.0156ZM20.0088 25.8281C16.3391 25.8281 13.3391 23.2109 13.3391 19.9922C13.3391 16.7734 16.3302 14.1562 20.0088 14.1562C23.6874 14.1562 26.6784 16.7734 26.6784 19.9922C26.6784 23.2109 23.6784 25.8281 20.0088 25.8281ZM33.0802 10.6484C33.0802 11.8125 32.0088 12.7422 30.6874 12.7422C29.357 12.7422 28.2945 11.8047 28.2945 10.6484C28.2945 9.49219 29.3659 8.55469 30.6874 8.55469C32.0088 8.55469 33.0802 9.49219 33.0802 10.6484ZM39.8749 12.7734C39.7231 9.96875 38.9909 7.48438 36.6427 5.4375C34.3034 3.39062 31.4641 2.75 28.2588 2.60937C24.9552 2.44531 15.0534 2.44531 11.7499 2.60937C8.55343 2.74219 5.71415 3.38281 3.36593 5.42969C1.01772 7.47656 0.294503 9.96094 0.133789 12.7656C-0.0537109 15.6562 -0.0537109 24.3203 0.133789 27.2109C0.285575 30.0156 1.01772 32.5 3.36593 34.5469C5.71415 36.5938 8.5445 37.2344 11.7499 37.375C15.0534 37.5391 24.9552 37.5391 28.2588 37.375C31.4641 37.2422 34.3034 36.6016 36.6427 34.5469C38.982 32.5 39.7141 30.0156 39.8749 27.2109C40.0624 24.3203 40.0624 15.6641 39.8749 12.7734ZM35.607 30.3125C34.9106 31.8438 33.5624 33.0234 31.8034 33.6406C29.1695 34.5547 22.9195 34.3438 20.0088 34.3438C17.0981 34.3438 10.8391 34.5469 8.21415 33.6406C6.46415 33.0312 5.11593 31.8516 4.41057 30.3125C3.36593 28.0078 3.607 22.5391 3.607 19.9922C3.607 17.4453 3.37486 11.9688 4.41057 9.67188C5.107 8.14062 6.45522 6.96094 8.21415 6.34375C10.8481 5.42969 17.0981 5.64062 20.0088 5.64062C22.9195 5.64062 29.1784 5.4375 31.8034 6.34375C33.5534 6.95312 34.9016 8.13281 35.607 9.67188C36.6516 11.9766 36.4106 17.4453 36.4106 19.9922C36.4106 22.5391 36.6516 28.0156 35.607 30.3125Z" fill="white"/>
</g>
<defs>
<clipPath id="clip0">
<rect width="40" height="40" fill="white"/>
</clipPath>
</defs>
</svg>
