<svg width="40" height="40" viewBox="0 0 40 40" fill="none" xmlns="http://www.w3.org/2000/svg">
<path d="M37.8471 9.19531C38.104 8.21875 37.8471 7.5 36.6109 7.5H32.5207C31.479 7.5 30.9998 8.11719 30.7429 8.80469C30.7429 8.80469 28.6596 14.5156 25.7151 18.2188C24.7637 19.2891 24.3262 19.6328 23.8054 19.6328C23.5484 19.6328 23.1526 19.2891 23.1526 18.3125V9.19531C23.1526 8.02344 22.8609 7.5 21.9998 7.5H15.5693C14.9165 7.5 14.5276 8.04688 14.5276 8.55469C14.5276 9.66406 15.9998 9.92188 16.1526 13.0469V19.8281C16.1526 21.3125 15.9165 21.5859 15.3957 21.5859C14.0068 21.5859 10.6318 15.8516 8.63178 9.28906C8.229 8.01563 7.83317 7.5 6.78456 7.5H2.69428C1.52761 7.5 1.2915 8.11719 1.2915 8.80469C1.2915 10.0234 2.68039 16.0781 7.75678 24.0781C11.1387 29.5391 15.9026 32.5 20.2359 32.5C22.8401 32.5 23.1596 31.8438 23.1596 30.7109C23.1596 25.4922 22.9234 25 24.229 25C24.8332 25 25.8748 25.3438 28.3054 27.9766C31.0832 31.1016 31.5415 32.5 33.0971 32.5H37.1873C38.354 32.5 38.9443 31.8438 38.604 30.5469C37.8262 27.8203 32.5693 22.2109 32.3332 21.8359C31.729 20.9609 31.9026 20.5703 32.3332 19.7891C32.3401 19.7812 37.3332 11.875 37.8471 9.19531Z" fill="white"/>
</svg>
